<?xml version="1.0" encoding="UTF-8"?><svg id="Layer_1" xmlns="http://www.w3.org/2000/svg" viewBox="0 0 71.12 68.26"><defs><style>.cls-1{stroke-width:0px;}.cls-1,.cls-2{stroke:#010101;}.cls-1,.cls-2,.cls-3{fill:none;stroke-linejoin:round;}.cls-2,.cls-3{stroke-width:.25px;}.cls-3{stroke:#343434;}</style></defs><polygon class="cls-2" points="35.53 68.14 .12 68.14 .12 .12 70.99 .12 70.99 68.14 35.53 68.14"/><circle class="cls-1" cx="5.78" cy="5.78" r="2.85"/><path class="cls-1" d="m65.34,2.93c1.6,0,2.8,1.25,2.8,2.85s-1.2,2.85-2.8,2.85-2.85-1.25-2.85-2.85,1.25-2.85,2.85-2.85Z"/><path class="cls-1" d="m5.78,38.38c1.6,0,2.85,1.25,2.85,2.85s-1.25,2.8-2.85,2.8-2.85-1.2-2.85-2.8,1.25-2.85,2.85-2.85Z"/><path class="cls-1" d="m65.34,38.38c1.6,0,2.8,1.25,2.8,2.85s-1.2,2.8-2.8,2.8-2.85-1.2-2.85-2.8,1.25-2.85,2.85-2.85Z"/><polygon class="cls-3" points="35.53 52.54 24.23 52.54 24.23 29.88 46.88 29.88 46.88 52.54 35.53 52.54"/></svg>